<?xml version="1.0" standalone="no"?>
<!DOCTYPE svg PUBLIC "-//W3C//DTD SVG 20010904//EN"
 "http://www.w3.org/TR/2001/REC-SVG-20010904/DTD/svg10.dtd">
<svg version="1.0" xmlns="http://www.w3.org/2000/svg"
 width="256.000000pt" height="256.000000pt" viewBox="0 0 256.000000 256.000000"
 preserveAspectRatio="xMidYMid meet">
<metadata>
Created by potrace 1.14, written by Peter Selinger 2001-2017
</metadata>
<g transform="translate(0.000000,256.000000) scale(0.100000,-0.100000)"
fill="#000000" stroke="none">
<path d="M490 2122 c-19 -8 -37 -17 -40 -21 -3 -4 -27 -13 -55 -21 -68 -18
-102 -36 -116 -61 -10 -20 -9 -21 80 -17 l90 3 5 -35 c3 -19 8 -71 12 -115 3
-44 7 -94 9 -111 2 -17 7 -66 10 -110 4 -43 8 -90 11 -104 2 -14 4 -65 4 -115
0 -49 5 -106 10 -125 21 -80 47 -528 35 -606 l-7 -46 -51 6 c-63 8 -155 52
-179 86 -28 38 -29 93 -4 143 25 49 70 72 90 46 24 -34 95 27 81 70 -8 27 -73
50 -128 46 -61 -4 -130 -44 -151 -89 -25 -54 -29 -88 -16 -152 26 -129 96
-221 183 -242 108 -27 271 22 349 105 38 40 76 118 90 186 7 31 15 57 18 57 7
0 46 -66 70 -118 l15 -32 40 41 c64 66 151 123 289 188 71 34 130 61 133 61 2
0 3 -51 2 -112 -3 -244 1 -328 14 -328 6 0 43 -16 81 -35 71 -36 113 -43 146
-25 20 11 26 30 35 115 4 33 8 70 10 82 16 101 24 545 11 617 -10 53 17 20 76
-94 152 -294 229 -414 316 -497 84 -78 163 -112 218 -93 48 17 106 110 154
245 32 94 37 125 18 125 -25 0 -35 -16 -66 -106 -33 -96 -87 -200 -108 -208
-16 -6 -36 25 -119 194 -163 327 -297 504 -420 556 l-39 16 29 13 c120 50 360
328 410 472 12 34 11 39 -3 43 -10 3 -30 14 -45 24 -36 24 -49 12 -66 -59 -22
-90 -106 -219 -213 -326 -55 -54 -149 -132 -153 -127 -2 2 -6 39 -10 83 -3 44
-8 96 -10 115 -2 19 -5 73 -6 119 -2 46 -8 88 -13 93 -43 35 -147 91 -177 95
-44 6 -56 -9 -59 -77 -1 -25 -3 -74 -5 -110 -1 -36 -4 -107 -5 -157 l-3 -93
-26 8 c-49 13 -135 5 -179 -17 -23 -12 -63 -44 -90 -71 l-49 -50 -11 37 c-36
121 -136 203 -247 203 l-42 0 -40 153 c-22 83 -37 155 -34 159 3 3 29 9 56 12
78 10 114 24 110 44 -1 9 2 22 7 29 7 9 0 11 -29 8 -148 -14 -175 -15 -195 -4
-42 23 -73 26 -108 11z"/>
</g>
</svg>
